<svg version="1.1" id="Layer_1" xmlns="http://www.w3.org/2000/svg" xmlns:xlink="http://www.w3.org/1999/xlink" x="0px" y="0px"
	 width="100%" viewBox="0 0 400 400" enable-background="new 0 0 400 400" xml:space="preserve">
<path fill="#FEFEFE" opacity="1.000000" stroke="none" 
	d="
M277.000000,401.000000 
	C184.695358,401.000000 92.890717,401.000000 1.043040,401.000000 
	C1.043040,267.737030 1.043040,134.474045 1.043040,1.105529 
	C134.221252,1.105529 267.442596,1.105529 400.831970,1.105529 
	C400.831970,134.333160 400.831970,267.666565 400.831970,401.000000 
	C359.807465,401.000000 318.653717,401.000000 277.000000,401.000000 
M195.136520,236.248886 
	C195.717468,235.814117 196.298416,235.379364 197.671387,234.967255 
	C198.373505,234.137177 199.075623,233.307083 200.033951,232.033463 
	C200.420090,231.699738 200.806244,231.366013 201.868622,231.121719 
	C203.641006,232.720535 205.413391,234.319351 207.762192,236.232635 
	C236.542984,266.358459 265.323792,296.484283 294.211578,326.722076 
	C297.872162,323.760681 301.053741,321.186768 304.514099,318.387329 
	C301.501160,315.115967 298.851044,312.238525 296.935303,309.015259 
	C296.132690,307.021667 295.330078,305.028046 294.397644,302.712036 
	C295.358124,302.257416 296.640778,301.650330 298.464569,301.230499 
	C299.005127,301.754578 299.545715,302.278656 300.045349,303.531647 
	C300.314026,304.192627 300.582703,304.853607 300.851349,305.514587 
	C301.309723,305.183289 301.768097,304.852020 302.772064,304.810974 
	C303.539978,305.480927 304.307892,306.150848 305.133270,307.564758 
	C305.911072,307.981018 306.688873,308.397278 308.087341,309.041290 
	C309.176422,309.752716 310.265503,310.464111 311.674652,311.384613 
	C315.159668,307.593079 318.801819,304.144470 321.851135,300.233643 
	C352.680817,260.693604 363.907288,216.307999 351.923981,167.417755 
	C338.241852,111.596207 302.646759,74.984222 248.781235,56.076473 
	C226.125580,48.123932 202.665527,46.698887 178.841690,49.867710 
	C174.265106,50.476448 172.748871,51.722984 172.764206,56.470543 
	C172.927795,107.128487 172.857452,157.787186 172.869766,208.445663 
	C172.870102,209.827240 173.076538,211.208771 173.238129,213.232178 
	C174.736328,211.816681 175.722397,210.969635 176.612595,210.031647 
	C200.233368,185.142319 223.837616,160.237244 247.477585,135.366165 
	C248.595093,134.190460 249.985123,132.463928 251.298691,132.417343 
	C259.139740,132.139359 266.995605,132.279755 274.846497,132.279755 
	C275.024719,132.722900 275.202911,133.166031 275.381104,133.609177 
	C235.212845,175.727264 195.044571,217.845352 154.876297,259.963440 
	C154.405945,259.784180 153.935577,259.604919 153.465225,259.425659 
	C153.465225,191.782013 153.465225,124.138374 153.465225,56.258572 
	C96.903030,72.549049 40.818420,132.078262 45.261398,211.602615 
	C49.411327,285.881714 104.712708,336.946228 153.650711,349.281433 
	C153.650711,343.042664 153.677536,336.909637 153.645660,330.776917 
	C153.553894,313.116882 153.379669,295.456879 153.414749,277.797211 
	C153.418640,275.832733 153.956223,273.205780 155.269592,272.010620 
	C167.581070,260.807190 180.115707,249.848984 193.344437,238.856689 
	C193.857910,238.151764 194.371384,237.446838 195.136520,236.248886 
M176.397095,266.062622 
	C173.320740,268.177368 172.766418,271.150055 172.786285,274.731445 
	C172.925888,299.878296 172.875732,325.026184 172.901794,350.173737 
	C172.903320,351.646973 173.040085,353.120056 173.138489,355.083282 
	C210.042450,360.920105 244.766663,355.995880 277.883148,336.911163 
	C249.509872,306.975677 221.731415,277.667755 193.536545,247.920486 
	C187.602646,254.195892 182.249985,259.856628 176.397095,266.062622 
z"/>
<path fill="#77927B" opacity="1.000000" stroke="none" 
	d="
M300.086273,302.802734 
	C299.545715,302.278656 299.005127,301.754578 298.056946,300.835510 
	C295.491974,298.819611 293.334625,297.198730 291.073425,295.399597 
	C290.771515,295.011566 290.529297,294.889038 290.063690,294.563019 
	C284.966614,290.370758 280.048767,286.469208 274.935303,282.339966 
	C274.071899,281.842102 273.404144,281.571930 272.571716,281.068787 
	C271.712524,280.173615 271.018036,279.511383 270.131805,278.565247 
	C265.387787,274.624603 260.835510,270.967896 256.283203,267.311188 
	C256.231659,267.458588 256.180084,267.606018 256.128510,267.753418 
	C260.096375,272.134857 264.064240,276.516266 268.175323,281.152893 
	C269.065979,282.034821 269.813416,282.661530 270.720276,283.549805 
	C271.487427,284.349518 272.095154,284.887665 272.822754,285.731903 
	C280.695404,293.812347 288.448151,301.586731 296.200928,309.361084 
	C298.851044,312.238525 301.501160,315.115967 304.514099,318.387329 
	C301.053741,321.186768 297.872162,323.760681 294.211578,326.722076 
	C265.323792,296.484283 236.542984,266.358459 207.401886,235.718781 
	C207.958878,233.742661 208.677231,232.097336 209.826477,230.848541 
	C216.203659,223.918823 222.685562,217.085480 229.417419,210.041565 
	C234.898071,204.261826 240.092911,198.659668 245.287766,193.057526 
	C244.883224,192.663696 244.478699,192.269882 244.074158,191.876068 
	C238.327759,197.216782 232.581360,202.557510 226.537064,208.043121 
	C217.890228,215.802765 209.541321,223.417542 201.192398,231.032288 
	C200.806244,231.366013 200.420090,231.699738 199.605515,232.382416 
	C198.411179,233.469101 197.645264,234.206848 196.879364,234.944595 
	C196.298416,235.379364 195.717468,235.814117 194.711349,236.606018 
	C193.719406,237.582092 193.152634,238.201004 192.585846,238.819916 
	C180.115707,249.848984 167.581070,260.807190 155.269592,272.010620 
	C153.956223,273.205780 153.418640,275.832733 153.414749,277.797211 
	C153.379669,295.456879 153.553894,313.116882 153.645660,330.776917 
	C153.677536,336.909637 153.650711,343.042664 153.650711,349.281433 
	C104.712708,336.946228 49.411327,285.881714 45.261398,211.602615 
	C40.818420,132.078262 96.903030,72.549049 153.465225,56.258572 
	C153.465225,124.138374 153.465225,191.782013 153.465225,259.425659 
	C153.935577,259.604919 154.405945,259.784180 154.876297,259.963440 
	C195.044571,217.845352 235.212845,175.727264 275.381104,133.609177 
	C275.202911,133.166031 275.024719,132.722900 274.846497,132.279755 
	C266.995605,132.279755 259.139740,132.139359 251.298691,132.417343 
	C249.985123,132.463928 248.595093,134.190460 247.477585,135.366165 
	C223.837616,160.237244 200.233368,185.142319 176.612595,210.031647 
	C175.722397,210.969635 174.736328,211.816681 173.238129,213.232178 
	C173.076538,211.208771 172.870102,209.827240 172.869766,208.445663 
	C172.857452,157.787186 172.927795,107.128487 172.764206,56.470543 
	C172.748871,51.722984 174.265106,50.476448 178.841690,49.867710 
	C202.665527,46.698887 226.125580,48.123932 248.781235,56.076473 
	C302.646759,74.984222 338.241852,111.596207 351.923981,167.417755 
	C363.907288,216.307999 352.680817,260.693604 321.851135,300.233643 
	C318.801819,304.144470 315.159668,307.593079 311.674652,311.384613 
	C310.265503,310.464111 309.176422,309.752716 307.620056,308.644287 
	C306.460449,307.771790 305.768127,307.296295 305.075806,306.820801 
	C304.307892,306.150848 303.539978,305.480927 302.369232,304.414612 
	C301.339691,303.613098 300.712982,303.207916 300.086273,302.802734 
z"/>
<path fill="#77927B" opacity="1.000000" stroke="none" 
	d="
M176.647217,265.789978 
	C182.249985,259.856628 187.602646,254.195892 193.536545,247.920486 
	C221.731415,277.667755 249.509872,306.975677 277.883148,336.911163 
	C244.766663,355.995880 210.042450,360.920105 173.138489,355.083282 
	C173.040085,353.120056 172.903320,351.646973 172.901794,350.173737 
	C172.875732,325.026184 172.925888,299.878296 172.786285,274.731445 
	C172.766418,271.150055 173.320740,268.177368 176.647217,265.789978 
z"/>
<path fill="#F0F7F0" opacity="1.000000" stroke="none" 
	d="
M229.131607,210.219131 
	C222.685562,217.085480 216.203659,223.918823 209.826477,230.848541 
	C208.677231,232.097336 207.958878,233.742661 207.113678,235.561554 
	C205.413391,234.319351 203.641006,232.720535 201.530518,231.077011 
	C209.541321,223.417542 217.890228,215.802765 226.841415,208.186768 
	C228.006317,208.863403 228.568954,209.541275 229.131607,210.219131 
z"/>
<path fill="#F3F8F2" opacity="1.000000" stroke="none" 
	d="
M275.130951,282.567688 
	C280.048767,286.469208 284.966614,290.370758 289.742310,294.727051 
	C287.603943,298.603851 288.291809,299.812988 292.586670,299.908661 
	C292.096832,298.403595 291.637054,296.990723 291.177246,295.577881 
	C293.334625,297.198730 295.491974,298.819611 297.786377,300.741852 
	C296.640778,301.650330 295.358124,302.257416 294.397644,302.712036 
	C295.330078,305.028046 296.132690,307.021667 296.568115,309.188171 
	C288.448151,301.586731 280.695404,293.812347 273.025177,285.406250 
	C273.782135,284.038879 274.456543,283.303284 275.130951,282.567688 
z"/>
<path fill="#F3F8F2" opacity="1.000000" stroke="none" 
	d="
M300.065796,303.167175 
	C300.712982,303.207916 301.339691,303.613098 302.096436,304.269501 
	C301.768097,304.852020 301.309723,305.183289 300.851349,305.514587 
	C300.582703,304.853607 300.314026,304.192627 300.065796,303.167175 
z"/>
<path fill="#F0F7F0" opacity="1.000000" stroke="none" 
	d="
M197.275375,234.955933 
	C197.645264,234.206848 198.411179,233.469101 199.477417,232.604187 
	C199.075623,233.307083 198.373505,234.137177 197.275375,234.955933 
z"/>
<path fill="#F0F7F0" opacity="1.000000" stroke="none" 
	d="
M192.965149,238.838318 
	C193.152634,238.201004 193.719406,237.582092 194.585510,236.852539 
	C194.371384,237.446838 193.857910,238.151764 192.965149,238.838318 
z"/>
<path fill="#F3F8F2" opacity="1.000000" stroke="none" 
	d="
M305.104553,307.192780 
	C305.768127,307.296295 306.460449,307.771790 307.309692,308.530396 
	C306.688873,308.397278 305.911072,307.981018 305.104553,307.192780 
z"/>
<path fill="#E4F2E5" opacity="1.000000" stroke="none" 
	d="
M229.417419,210.041565 
	C228.568954,209.541275 228.006317,208.863403 227.139328,208.041870 
	C232.581360,202.557510 238.327759,197.216782 244.074158,191.876068 
	C244.478699,192.269882 244.883224,192.663696 245.287766,193.057526 
	C240.092911,198.659668 234.898071,204.261826 229.417419,210.041565 
z"/>
<path fill="#E4F0E5" opacity="1.000000" stroke="none" 
	d="
M268.032104,280.897675 
	C264.064240,276.516266 260.096375,272.134857 256.128510,267.753418 
	C256.180084,267.606018 256.231659,267.458588 256.283203,267.311188 
	C260.835510,270.967896 265.387787,274.624603 269.787292,278.631104 
	C269.100403,279.619843 268.566254,280.258759 268.032104,280.897675 
z"/>
<path fill="#FEFEFE" opacity="1.000000" stroke="none" 
	d="
M291.073425,295.399597 
	C291.637054,296.990723 292.096832,298.403595 292.586670,299.908661 
	C288.291809,299.812988 287.603943,298.603851 289.921570,295.017822 
	C290.529297,294.889038 290.771515,295.011566 291.073425,295.399597 
z"/>
<path fill="#F3F8F2" opacity="1.000000" stroke="none" 
	d="
M268.175293,281.152893 
	C268.566254,280.258759 269.100403,279.619843 269.979065,278.915039 
	C271.018036,279.511383 271.712524,280.173615 272.238556,281.452332 
	C271.567017,282.475311 271.063934,282.881744 270.560852,283.288208 
	C269.813416,282.661530 269.065979,282.034821 268.175293,281.152893 
z"/>
<path fill="#E4F0E5" opacity="1.000000" stroke="none" 
	d="
M270.720276,283.549805 
	C271.063934,282.881744 271.567017,282.475311 272.403259,281.685303 
	C273.404144,281.571930 274.071899,281.842102 274.935303,282.339966 
	C274.456543,283.303284 273.782135,284.038879 272.905273,285.100159 
	C272.095154,284.887665 271.487427,284.349518 270.720276,283.549805 
z"/>
</svg>