<svg version="1.1" id="Layer_1" xmlns="http://www.w3.org/2000/svg" xmlns:xlink="http://www.w3.org/1999/xlink" x="0px" y="0px"
	 width="100%" viewBox="0 0 2048 2048" enable-background="new 0 0 2048 2048" xml:space="preserve">
<path fill="#FFFFFF" opacity="1.000000" stroke="none" 
	d="
M979.000000,2049.000000 
	C652.666687,2049.000000 326.833344,2049.000000 1.000000,2049.000000 
	C1.000000,1366.333374 1.000000,683.666687 1.000000,1.000000 
	C683.666687,1.000000 1366.333374,1.000000 2049.000000,1.000000 
	C2049.000000,683.666687 2049.000000,1366.333374 2049.000000,2049.000000 
	C1692.500000,2049.000000 1336.000000,2049.000000 979.000000,2049.000000 
M1266.735229,804.676331 
	C1251.633667,820.875122 1236.657593,837.193054 1221.408081,853.251282 
	C1165.563232,912.058105 1109.672852,970.822021 1053.711060,1029.517578 
	C1010.503235,1074.836060 967.210205,1120.073730 923.857178,1165.253296 
	C906.801453,1183.027710 889.479675,1200.546997 871.799072,1218.013916 
	C871.631226,1217.989868 871.463379,1217.965698 871.139893,1217.024292 
	C871.116333,1215.858765 871.072205,1214.693115 871.072144,1213.527588 
	C871.064209,1025.491943 871.070618,837.456360 871.043518,649.420776 
	C871.039062,618.279846 870.889038,587.138855 870.856018,555.482300 
	C870.570984,555.373474 870.285950,555.264709 869.251892,555.145508 
	C642.945557,627.897095 487.273438,856.341736 525.369446,1105.709595 
	C544.212219,1229.049927 602.748352,1331.093506 697.660095,1412.044556 
	C748.740601,1455.611572 806.461609,1487.418701 870.877991,1507.814697 
	C870.960815,1506.007446 871.073120,1504.701538 871.072998,1503.395630 
	C871.066772,1424.070557 871.079102,1344.745361 870.955322,1265.420410 
	C870.949097,1261.410034 872.090210,1258.667480 875.104248,1255.984741 
	C910.568298,1224.419067 945.951660,1192.762451 981.291077,1161.057251 
	C1041.310059,1107.210327 1101.283081,1053.312256 1161.273438,999.433594 
	C1170.433105,991.207092 1179.582886,982.969543 1189.146362,975.148987 
	C1189.290894,975.276917 1189.435303,975.404785 1189.314575,976.154480 
	C1140.495850,1028.726562 1091.677124,1081.298706 1042.979980,1133.739868 
	C1137.358032,1233.155518 1231.931396,1332.776855 1326.647461,1432.548462 
	C1337.928345,1423.530151 1349.074951,1414.619263 1360.801636,1405.244629 
	C1301.754761,1345.152222 1243.108276,1285.467285 1184.461670,1225.782349 
	C1184.799927,1225.416626 1185.138306,1225.050781 1185.476562,1224.685059 
	C1186.747925,1225.659180 1188.039917,1226.607788 1189.287720,1227.611206 
	C1252.124756,1278.152832 1314.991577,1328.657593 1377.714722,1379.340210 
	C1381.766846,1382.614502 1383.867676,1382.193481 1387.357056,1378.657227 
	C1426.489380,1338.997803 1457.585938,1293.778931 1481.242310,1243.420166 
	C1520.937134,1158.919312 1535.289673,1070.117554 1525.765381,977.381042 
	C1521.194214,932.871704 1510.293091,889.841125 1493.711914,848.342407 
	C1460.189697,764.444153 1407.375732,694.868591 1336.644287,638.822815 
	C1298.245850,608.396851 1256.008911,584.622559 1210.611450,566.282898 
	C1159.860474,545.780640 1107.070190,534.153198 1052.554199,531.421082 
	C1028.932983,530.237305 1005.124268,531.937622 981.442749,533.148132 
	C967.525085,533.859497 953.710144,536.408020 939.806702,537.660156 
	C934.819641,538.109253 933.642456,539.923950 933.645203,544.771240 
	C933.743774,717.262390 933.687317,889.753540 933.671875,1062.244751 
	C933.671753,1063.426270 933.939636,1064.607788 934.223572,1066.957642 
	C936.323792,1064.632080 937.615906,1063.131470 938.980896,1061.700562 
	C967.158691,1032.163086 995.348816,1002.637329 1023.527771,973.100952 
	C1053.547119,941.635559 1083.645386,910.244812 1113.543091,878.664307 
	C1136.680786,854.224243 1159.538452,829.519226 1182.619995,805.025452 
	C1183.946289,803.617920 1186.163330,802.232544 1187.974243,802.221680 
	C1214.302856,802.062622 1240.632812,802.140076 1266.978760,802.806274 
	C1267.003052,803.236084 1267.027344,803.665955 1266.735229,804.676331 
M939.185486,1241.733765 
	C934.453491,1245.436157 933.325623,1250.195435 933.516296,1256.164673 
	C933.989197,1270.972900 933.683105,1285.806152 933.692383,1300.629272 
	C933.737366,1372.618042 933.783081,1444.606812 933.828491,1516.595581 
	C933.829895,1518.901123 933.828674,1521.206665 933.828674,1523.920532 
	C1000.378235,1536.046753 1066.290161,1534.948242 1132.000366,1520.868652 
	C1182.023193,1510.150391 1228.847656,1491.170654 1273.971436,1465.970337 
	C1183.144531,1369.105591 1092.842896,1272.833984 1000.560547,1177.741333 
	C979.780396,1199.409058 959.731140,1220.314697 939.185486,1241.733765 
z"/>
<path fill="#76927B" opacity="1.000000" stroke="none" 
	d="
M1188.737183,974.737122 
	C1179.582886,982.969543 1170.433105,991.207092 1161.273438,999.433594 
	C1101.283081,1053.312256 1041.310059,1107.210327 981.291077,1161.057251 
	C945.951660,1192.762451 910.568298,1224.419067 875.104248,1255.984741 
	C872.090210,1258.667480 870.949097,1261.410034 870.955322,1265.420410 
	C871.079102,1344.745361 871.066772,1424.070557 871.072998,1503.395630 
	C871.073120,1504.701538 870.960815,1506.007446 870.877991,1507.814697 
	C806.461609,1487.418701 748.740601,1455.611572 697.660095,1412.044556 
	C602.748352,1331.093506 544.212219,1229.049927 525.369446,1105.709595 
	C487.273438,856.341736 642.945557,627.897095 869.713989,555.330933 
	C870.335999,555.742554 870.546021,555.903076 870.806213,555.997925 
	C870.889038,587.138855 871.039062,618.279846 871.043518,649.420776 
	C871.070618,837.456360 871.064209,1025.491943 871.072144,1213.527588 
	C871.072205,1214.693115 871.116333,1215.858765 871.177246,1217.725220 
	C871.569397,1218.344971 871.924194,1218.263672 872.279053,1218.182495 
	C889.479675,1200.546997 906.801453,1183.027710 923.857178,1165.253296 
	C967.210205,1120.073730 1010.503235,1074.836060 1053.711060,1029.517578 
	C1109.672852,970.822021 1165.563232,912.058105 1221.408081,853.251282 
	C1236.657593,837.193054 1251.633667,820.875122 1267.164185,804.277344 
	C1267.844727,803.357117 1268.096191,802.835876 1268.347778,802.314636 
	C1267.885986,802.263428 1267.424316,802.212219 1266.962524,802.161072 
	C1240.632812,802.140076 1214.302856,802.062622 1187.974243,802.221680 
	C1186.163330,802.232544 1183.946289,803.617920 1182.619995,805.025452 
	C1159.538452,829.519226 1136.680786,854.224243 1113.543091,878.664307 
	C1083.645386,910.244812 1053.547119,941.635559 1023.527771,973.100952 
	C995.348816,1002.637329 967.158691,1032.163086 938.980896,1061.700562 
	C937.615906,1063.131470 936.323792,1064.632080 934.223572,1066.957642 
	C933.939636,1064.607788 933.671753,1063.426270 933.671875,1062.244751 
	C933.687317,889.753540 933.743774,717.262390 933.645203,544.771240 
	C933.642456,539.923950 934.819641,538.109253 939.806702,537.660156 
	C953.710144,536.408020 967.525085,533.859497 981.442749,533.148132 
	C1005.124268,531.937622 1028.932983,530.237305 1052.554199,531.421082 
	C1107.070190,534.153198 1159.860474,545.780640 1210.611450,566.282898 
	C1256.008911,584.622559 1298.245850,608.396851 1336.644287,638.822815 
	C1407.375732,694.868591 1460.189697,764.444153 1493.711914,848.342407 
	C1510.293091,889.841125 1521.194214,932.871704 1525.765381,977.381042 
	C1535.289673,1070.117554 1520.937134,1158.919312 1481.242310,1243.420166 
	C1457.585938,1293.778931 1426.489380,1338.997803 1387.357056,1378.657227 
	C1383.867676,1382.193481 1381.766846,1382.614502 1377.714722,1379.340210 
	C1314.991577,1328.657593 1252.124756,1278.152832 1189.287720,1227.611206 
	C1188.039917,1226.607788 1186.747925,1225.659180 1185.476562,1224.685059 
	C1185.138306,1225.050781 1184.799927,1225.416626 1184.461670,1225.782349 
	C1243.108276,1285.467285 1301.754761,1345.152222 1360.801636,1405.244629 
	C1349.074951,1414.619263 1337.928345,1423.530151 1326.647461,1432.548462 
	C1231.931396,1332.776855 1137.358032,1233.155518 1042.979980,1133.739868 
	C1091.677124,1081.298706 1140.495850,1028.726562 1189.633545,975.709229 
	C1190.188110,975.056152 1190.376465,974.811951 1190.682129,974.335693 
	C1190.794312,973.894836 1190.742188,973.649475 1190.690186,973.404053 
	C1190.382812,973.525818 1190.075317,973.647522 1189.538330,973.860107 
	C1189.017822,974.140015 1188.827271,974.402100 1188.737183,974.737122 
M1180.439819,1222.581665 
	C1181.151733,1222.825195 1181.863647,1223.068726 1182.575562,1223.312256 
	C1182.646729,1223.059570 1182.718018,1222.806885 1182.789185,1222.554321 
	C1182.180054,1222.404785 1181.570801,1222.255371 1180.439819,1222.581665 
z"/>
<path fill="#76927A" opacity="1.000000" stroke="none" 
	d="
M939.433716,1241.477051 
	C959.731140,1220.314697 979.780396,1199.409058 1000.560547,1177.741333 
	C1092.842896,1272.833984 1183.144531,1369.105591 1273.971436,1465.970337 
	C1228.847656,1491.170654 1182.023193,1510.150391 1132.000366,1520.868652 
	C1066.290161,1534.948242 1000.378235,1536.046753 933.828674,1523.920532 
	C933.828674,1521.206665 933.829895,1518.901123 933.828491,1516.595581 
	C933.783081,1444.606812 933.737366,1372.618042 933.692383,1300.629272 
	C933.683105,1285.806152 933.989197,1270.972900 933.516296,1256.164673 
	C933.325623,1250.195435 934.453491,1245.436157 939.433716,1241.477051 
z"/>
<path fill="#E6EFE7" opacity="1.000000" stroke="none" 
	d="
M1266.970703,802.483643 
	C1267.424316,802.212219 1267.885986,802.263428 1268.347778,802.314636 
	C1268.096191,802.835876 1267.844727,803.357117 1267.322388,803.987061 
	C1267.027344,803.665955 1267.003052,803.236084 1266.970703,802.483643 
z"/>
<path fill="#899A8A" opacity="1.000000" stroke="none" 
	d="
M870.831116,555.740112 
	C870.546021,555.903076 870.335999,555.742554 870.088501,555.336182 
	C870.285950,555.264709 870.570984,555.373474 870.831116,555.740112 
z"/>
<path fill="#E6EFE7" opacity="1.000000" stroke="none" 
	d="
M872.039062,1218.098145 
	C871.924194,1218.263672 871.569397,1218.344971 871.255005,1218.183838 
	C871.463379,1217.965698 871.631226,1217.989868 872.039062,1218.098145 
z"/>
<path fill="#FFFFFF" opacity="1.000000" stroke="none" 
	d="
M1180.700684,1222.343750 
	C1181.570801,1222.255371 1182.180054,1222.404785 1182.789185,1222.554321 
	C1182.718018,1222.806885 1182.646729,1223.059570 1182.575562,1223.312256 
	C1181.863647,1223.068726 1181.151733,1222.825195 1180.700684,1222.343750 
z"/>
<path fill="#FFFFFF" opacity="1.000000" stroke="none" 
	d="
M1189.767944,973.769287 
	C1190.075317,973.647522 1190.382812,973.525818 1190.690186,973.404053 
	C1190.742188,973.649475 1190.794312,973.894836 1190.498413,974.141479 
	C1190.022827,974.018311 1189.895386,973.893799 1189.767944,973.769287 
z"/>
<path fill="#FFFFFF" opacity="1.000000" stroke="none" 
	d="
M1190.333984,974.337036 
	C1190.376465,974.811951 1190.188110,975.056152 1189.766113,975.398254 
	C1189.435303,975.404785 1189.290894,975.276917 1188.941772,974.943054 
	C1188.827271,974.402100 1189.017822,974.140015 1189.538330,973.860107 
	C1189.895386,973.893799 1190.022827,974.018311 1190.333984,974.337036 
z"/>
</svg>